<mxfile host="65bd71144e">
    <diagram id="3xByLlmDNNMTJOKspY2f" name="Page-1">
        <mxGraphModel dx="76" dy="119" grid="0" gridSize="10" guides="1" tooltips="1" connect="1" arrows="1" fold="1" page="1" pageScale="1" pageWidth="850" pageHeight="1100" math="0" shadow="0">
            <root>
                <mxCell id="0"/>
                <mxCell id="1" parent="0"/>
                <mxCell id="6" value="" style="edgeStyle=none;html=1;" edge="1" parent="1" source="2" target="5">
                    <mxGeometry relative="1" as="geometry"/>
                </mxCell>
                <mxCell id="2" value="START" style="strokeWidth=2;html=1;shape=mxgraph.flowchart.terminator;whiteSpace=wrap;" vertex="1" parent="1">
                    <mxGeometry x="375" y="31" width="100" height="59" as="geometry"/>
                </mxCell>
                <mxCell id="3" value="STOP" style="strokeWidth=2;html=1;shape=mxgraph.flowchart.terminator;whiteSpace=wrap;" vertex="1" parent="1">
                    <mxGeometry x="372" y="564" width="100" height="60" as="geometry"/>
                </mxCell>
                <mxCell id="11" value="" style="edgeStyle=none;html=1;" edge="1" parent="1" source="4" target="10">
                    <mxGeometry relative="1" as="geometry"/>
                </mxCell>
                <mxCell id="4" value="input x" style="shape=parallelogram;html=1;strokeWidth=2;perimeter=parallelogramPerimeter;whiteSpace=wrap;rounded=1;arcSize=12;size=0.23;" vertex="1" parent="1">
                    <mxGeometry x="350" y="223" width="150" height="60" as="geometry"/>
                </mxCell>
                <mxCell id="7" value="" style="edgeStyle=none;html=1;" edge="1" parent="1" source="5" target="4">
                    <mxGeometry relative="1" as="geometry"/>
                </mxCell>
                <mxCell id="5" value="int x&lt;br&gt;int total = 0&lt;br&gt;int i = 1" style="rounded=1;whiteSpace=wrap;html=1;strokeWidth=2;" vertex="1" parent="1">
                    <mxGeometry x="365" y="119" width="120" height="60" as="geometry"/>
                </mxCell>
                <mxCell id="13" value="" style="edgeStyle=none;html=1;" edge="1" parent="1" source="10" target="12">
                    <mxGeometry relative="1" as="geometry"/>
                </mxCell>
                <mxCell id="nBpA5O_lNG2PSp1gWS4N-19" value="" style="edgeStyle=none;html=1;" edge="1" parent="1" source="10" target="nBpA5O_lNG2PSp1gWS4N-18">
                    <mxGeometry relative="1" as="geometry"/>
                </mxCell>
                <mxCell id="10" value="while i &amp;lt;= x" style="rhombus;whiteSpace=wrap;html=1;strokeWidth=2;rounded=1;arcSize=12;" vertex="1" parent="1">
                    <mxGeometry x="345" y="318" width="156" height="120" as="geometry"/>
                </mxCell>
                <mxCell id="17" value="" style="edgeStyle=none;html=1;" edge="1" parent="1" source="12" target="3">
                    <mxGeometry relative="1" as="geometry"/>
                </mxCell>
                <mxCell id="12" value="print &quot;BlastOff&quot;" style="shape=parallelogram;perimeter=parallelogramPerimeter;whiteSpace=wrap;html=1;fixedSize=1;strokeWidth=2;rounded=1;arcSize=12;" vertex="1" parent="1">
                    <mxGeometry x="340.5" y="471" width="163" height="60" as="geometry"/>
                </mxCell>
                <mxCell id="nBpA5O_lNG2PSp1gWS4N-21" value="" style="edgeStyle=none;html=1;" edge="1" parent="1" source="nBpA5O_lNG2PSp1gWS4N-18" target="nBpA5O_lNG2PSp1gWS4N-20">
                    <mxGeometry relative="1" as="geometry"/>
                </mxCell>
                <mxCell id="nBpA5O_lNG2PSp1gWS4N-18" value="total += i" style="whiteSpace=wrap;html=1;strokeWidth=2;rounded=1;arcSize=12;" vertex="1" parent="1">
                    <mxGeometry x="200" y="356.5" width="88" height="43" as="geometry"/>
                </mxCell>
                <mxCell id="nBpA5O_lNG2PSp1gWS4N-25" value="" style="edgeStyle=none;html=1;" edge="1" parent="1" source="nBpA5O_lNG2PSp1gWS4N-20" target="nBpA5O_lNG2PSp1gWS4N-24">
                    <mxGeometry relative="1" as="geometry"/>
                </mxCell>
                <mxCell id="nBpA5O_lNG2PSp1gWS4N-20" value="i++" style="whiteSpace=wrap;html=1;strokeWidth=2;rounded=1;arcSize=12;" vertex="1" parent="1">
                    <mxGeometry x="102" y="365.25" width="54" height="25.5" as="geometry"/>
                </mxCell>
                <mxCell id="nBpA5O_lNG2PSp1gWS4N-26" style="edgeStyle=none;html=1;exitX=1;exitY=0.5;exitDx=0;exitDy=0;" edge="1" parent="1" source="nBpA5O_lNG2PSp1gWS4N-24">
                    <mxGeometry relative="1" as="geometry">
                        <mxPoint x="427" y="297" as="targetPoint"/>
                    </mxGeometry>
                </mxCell>
                <mxCell id="nBpA5O_lNG2PSp1gWS4N-24" value="print i" style="shape=parallelogram;perimeter=parallelogramPerimeter;whiteSpace=wrap;html=1;fixedSize=1;strokeWidth=2;rounded=1;arcSize=12;" vertex="1" parent="1">
                    <mxGeometry x="63.5" y="274" width="131" height="44" as="geometry"/>
                </mxCell>
            </root>
        </mxGraphModel>
    </diagram>
    <diagram id="76yWlT8mDR3wcnjSUUJP" name="Page-2">
        <mxGraphModel dx="511" dy="800" grid="0" gridSize="10" guides="1" tooltips="1" connect="1" arrows="1" fold="1" page="1" pageScale="1" pageWidth="850" pageHeight="1100" math="0" shadow="0">
            <root>
                <mxCell id="zI5Af3qVRVZ_2cDIn_L0-0"/>
                <mxCell id="zI5Af3qVRVZ_2cDIn_L0-1" parent="zI5Af3qVRVZ_2cDIn_L0-0"/>
                <mxCell id="zI5Af3qVRVZ_2cDIn_L0-2" value="" style="edgeStyle=none;html=1;" edge="1" parent="zI5Af3qVRVZ_2cDIn_L0-1" source="zI5Af3qVRVZ_2cDIn_L0-3" target="zI5Af3qVRVZ_2cDIn_L0-8">
                    <mxGeometry relative="1" as="geometry"/>
                </mxCell>
                <mxCell id="zI5Af3qVRVZ_2cDIn_L0-3" value="START" style="strokeWidth=2;html=1;shape=mxgraph.flowchart.terminator;whiteSpace=wrap;" vertex="1" parent="zI5Af3qVRVZ_2cDIn_L0-1">
                    <mxGeometry x="375" y="31" width="100" height="59" as="geometry"/>
                </mxCell>
                <mxCell id="zI5Af3qVRVZ_2cDIn_L0-4" value="STOP" style="strokeWidth=2;html=1;shape=mxgraph.flowchart.terminator;whiteSpace=wrap;" vertex="1" parent="zI5Af3qVRVZ_2cDIn_L0-1">
                    <mxGeometry x="372" y="564" width="100" height="60" as="geometry"/>
                </mxCell>
                <mxCell id="zI5Af3qVRVZ_2cDIn_L0-5" value="" style="edgeStyle=none;html=1;" edge="1" parent="zI5Af3qVRVZ_2cDIn_L0-1" source="zI5Af3qVRVZ_2cDIn_L0-6" target="zI5Af3qVRVZ_2cDIn_L0-11">
                    <mxGeometry relative="1" as="geometry"/>
                </mxCell>
                <mxCell id="zI5Af3qVRVZ_2cDIn_L0-6" value="input x" style="shape=parallelogram;html=1;strokeWidth=2;perimeter=parallelogramPerimeter;whiteSpace=wrap;rounded=1;arcSize=12;size=0.23;" vertex="1" parent="zI5Af3qVRVZ_2cDIn_L0-1">
                    <mxGeometry x="350" y="223" width="150" height="60" as="geometry"/>
                </mxCell>
                <mxCell id="zI5Af3qVRVZ_2cDIn_L0-7" value="" style="edgeStyle=none;html=1;" edge="1" parent="zI5Af3qVRVZ_2cDIn_L0-1" source="zI5Af3qVRVZ_2cDIn_L0-8" target="zI5Af3qVRVZ_2cDIn_L0-6">
                    <mxGeometry relative="1" as="geometry"/>
                </mxCell>
                <mxCell id="zI5Af3qVRVZ_2cDIn_L0-8" value="int x, i" style="rounded=1;whiteSpace=wrap;html=1;strokeWidth=2;" vertex="1" parent="zI5Af3qVRVZ_2cDIn_L0-1">
                    <mxGeometry x="365" y="119" width="120" height="60" as="geometry"/>
                </mxCell>
                <mxCell id="zI5Af3qVRVZ_2cDIn_L0-9" value="" style="edgeStyle=none;html=1;" edge="1" parent="zI5Af3qVRVZ_2cDIn_L0-1" source="zI5Af3qVRVZ_2cDIn_L0-11" target="zI5Af3qVRVZ_2cDIn_L0-13">
                    <mxGeometry relative="1" as="geometry"/>
                </mxCell>
                <mxCell id="zI5Af3qVRVZ_2cDIn_L0-10" value="" style="edgeStyle=none;html=1;" edge="1" parent="zI5Af3qVRVZ_2cDIn_L0-1" source="zI5Af3qVRVZ_2cDIn_L0-11" target="zI5Af3qVRVZ_2cDIn_L0-15">
                    <mxGeometry relative="1" as="geometry"/>
                </mxCell>
                <mxCell id="zI5Af3qVRVZ_2cDIn_L0-11" value="for (i = x; i &amp;gt;=0; i--)" style="rhombus;whiteSpace=wrap;html=1;strokeWidth=2;rounded=1;arcSize=12;" vertex="1" parent="zI5Af3qVRVZ_2cDIn_L0-1">
                    <mxGeometry x="344" y="318" width="156" height="120" as="geometry"/>
                </mxCell>
                <mxCell id="zI5Af3qVRVZ_2cDIn_L0-12" value="" style="edgeStyle=none;html=1;" edge="1" parent="zI5Af3qVRVZ_2cDIn_L0-1" source="zI5Af3qVRVZ_2cDIn_L0-13" target="zI5Af3qVRVZ_2cDIn_L0-4">
                    <mxGeometry relative="1" as="geometry"/>
                </mxCell>
                <mxCell id="zI5Af3qVRVZ_2cDIn_L0-13" value="print &quot;BlastOff&quot;" style="shape=parallelogram;perimeter=parallelogramPerimeter;whiteSpace=wrap;html=1;fixedSize=1;strokeWidth=2;rounded=1;arcSize=12;" vertex="1" parent="zI5Af3qVRVZ_2cDIn_L0-1">
                    <mxGeometry x="340.5" y="471" width="163" height="60" as="geometry"/>
                </mxCell>
                <mxCell id="zI5Af3qVRVZ_2cDIn_L0-14" style="edgeStyle=none;html=1;exitX=0.5;exitY=0;exitDx=0;exitDy=0;" edge="1" parent="zI5Af3qVRVZ_2cDIn_L0-1" source="zI5Af3qVRVZ_2cDIn_L0-15">
                    <mxGeometry relative="1" as="geometry">
                        <mxPoint x="425.9999999999998" y="302" as="targetPoint"/>
                        <Array as="points">
                            <mxPoint x="222" y="302"/>
                        </Array>
                    </mxGeometry>
                </mxCell>
                <mxCell id="zI5Af3qVRVZ_2cDIn_L0-15" value="print i" style="shape=parallelogram;perimeter=parallelogramPerimeter;whiteSpace=wrap;html=1;fixedSize=1;strokeWidth=2;rounded=1;arcSize=12;" vertex="1" parent="zI5Af3qVRVZ_2cDIn_L0-1">
                    <mxGeometry x="162" y="348" width="120" height="60" as="geometry"/>
                </mxCell>
            </root>
        </mxGraphModel>
    </diagram>
</mxfile>